<svg width="13" height="20" viewBox="0 0 13 20" fill="none" xmlns="http://www.w3.org/2000/svg">
<path d="M11.765 16.016C12.1117 16.016 12.3847 16.1157 12.584 16.315C12.792 16.5057 12.896 16.7613 12.896 17.082V19.006H0V17.94C0 17.7233 0.0433333 17.498 0.13 17.264C0.225333 17.0213 0.372667 16.8047 0.572 16.614L6.279 10.894C6.75567 10.4087 7.18033 9.945 7.553 9.503C7.93433 9.061 8.25067 8.62333 8.502 8.19C8.75333 7.75667 8.944 7.319 9.074 6.877C9.21267 6.42633 9.282 5.954 9.282 5.46C9.282 5.00933 9.217 4.615 9.087 4.277C8.957 3.93033 8.77067 3.64 8.528 3.406C8.294 3.172 8.008 2.99867 7.67 2.886C7.34067 2.76467 6.968 2.704 6.552 2.704C6.17067 2.704 5.81533 2.76033 5.486 2.873C5.16533 2.977 4.87933 3.12867 4.628 3.328C4.37667 3.51867 4.16433 3.744 3.991 4.004C3.81767 4.264 3.68767 4.55 3.601 4.862C3.45367 5.26067 3.263 5.525 3.029 5.655C2.795 5.785 2.457 5.81533 2.015 5.746L0.325 5.447C0.455 4.54567 0.706333 3.757 1.079 3.081C1.45167 2.39633 1.91533 1.82867 2.47 1.378C3.03333 0.918666 3.67467 0.576333 4.394 0.350999C5.122 0.117 5.902 0 6.734 0C7.60067 0 8.39367 0.13 9.113 0.39C9.83233 0.641332 10.4477 1.001 10.959 1.469C11.4703 1.937 11.869 2.50033 12.155 3.159C12.441 3.81767 12.584 4.55 12.584 5.356C12.584 6.04933 12.48 6.69067 12.272 7.28C12.0727 7.86933 11.7997 8.43267 11.453 8.97C11.115 9.50733 10.7163 10.0273 10.257 10.53C9.79767 11.0327 9.31667 11.544 8.814 12.064L4.576 16.393C4.98333 16.2717 5.38633 16.1807 5.785 16.12C6.19233 16.0507 6.578 16.016 6.942 16.016H11.765Z" fill="#666666"/>
</svg>
