<svg width="13" height="20" viewBox="0 0 13 20" fill="none" xmlns="http://www.w3.org/2000/svg">
<path d="M4.147 6.825C4.563 6.73833 4.96167 6.67767 5.343 6.643C5.72433 6.59967 6.09267 6.578 6.448 6.578C7.436 6.578 8.307 6.72533 9.061 7.02C9.815 7.31467 10.4477 7.722 10.959 8.242C11.4703 8.762 11.856 9.373 12.116 10.075C12.376 10.7683 12.506 11.518 12.506 12.324C12.506 13.3207 12.3283 14.2307 11.973 15.054C11.6263 15.8773 11.141 16.5837 10.517 17.173C9.893 17.7537 9.152 18.2043 8.294 18.525C7.44467 18.8457 6.51733 19.006 5.512 19.006C4.92267 19.006 4.36367 18.9453 3.835 18.824C3.30633 18.7027 2.808 18.5423 2.34 18.343C1.88067 18.135 1.45167 17.901 1.053 17.641C0.663 17.3723 0.312 17.0907 0 16.796L0.988 15.431C1.196 15.1363 1.469 14.989 1.807 14.989C2.02367 14.989 2.24467 15.0583 2.47 15.197C2.69533 15.3357 2.951 15.4873 3.237 15.652C3.53167 15.8167 3.874 15.9683 4.264 16.107C4.66267 16.2457 5.13933 16.315 5.694 16.315C6.28333 16.315 6.80333 16.2197 7.254 16.029C7.70467 15.8383 8.07733 15.574 8.372 15.236C8.67533 14.8893 8.90067 14.482 9.048 14.014C9.204 13.5373 9.282 13.0217 9.282 12.467C9.282 11.4443 8.983 10.647 8.385 10.075C7.79567 9.49433 6.92033 9.204 5.759 9.204C4.86633 9.204 3.952 9.36867 3.016 9.698L1.014 9.126L2.574 0H11.856V1.365C11.856 1.82433 11.713 2.197 11.427 2.483C11.141 2.769 10.6557 2.912 9.971 2.912H4.81L4.147 6.825Z" />
</svg>
