<svg width="14" height="20" viewBox="0 0 14 20" fill="none" xmlns="http://www.w3.org/2000/svg">
<path d="M5.694 6.825L5.044 7.631C5.408 7.449 5.798 7.31033 6.214 7.215C6.63867 7.111 7.09367 7.059 7.579 7.059C8.28967 7.059 8.97867 7.176 9.646 7.41C10.322 7.644 10.9157 7.99933 11.427 8.476C11.9383 8.944 12.35 9.529 12.662 10.231C12.974 10.933 13.13 11.752 13.13 12.688C13.13 13.5633 12.9697 14.3867 12.649 15.158C12.3283 15.9207 11.8777 16.588 11.297 17.16C10.7163 17.732 10.0143 18.1827 9.191 18.512C8.37633 18.8413 7.475 19.006 6.487 19.006C5.48167 19.006 4.58033 18.8457 3.783 18.525C2.98567 18.2043 2.30533 17.758 1.742 17.186C1.17867 16.6053 0.745333 15.912 0.442 15.106C0.147333 14.2913 0 13.39 0 12.402C0 11.518 0.177667 10.6123 0.533 9.685C0.897 8.749 1.456 7.77833 2.21 6.773L6.695 0.754001C6.851 0.546001 7.07633 0.368334 7.371 0.221001C7.67433 0.073667 8.021 0 8.411 0H11.271L5.694 6.825ZM6.422 16.38C6.93333 16.38 7.40133 16.2933 7.826 16.12C8.25933 15.9467 8.62767 15.704 8.931 15.392C9.243 15.08 9.48567 14.716 9.659 14.3C9.83233 13.8753 9.919 13.416 9.919 12.922C9.919 12.3847 9.83667 11.9037 9.672 11.479C9.50733 11.0457 9.27333 10.6817 8.97 10.387C8.66667 10.0837 8.30267 9.854 7.878 9.698C7.45333 9.542 6.98533 9.464 6.474 9.464C5.96267 9.464 5.499 9.55067 5.083 9.724C4.667 9.89733 4.31167 10.14 4.017 10.452C3.72233 10.7553 3.49267 11.1193 3.328 11.544C3.16333 11.96 3.081 12.4107 3.081 12.896C3.081 13.416 3.15033 13.8927 3.289 14.326C3.43633 14.7507 3.64867 15.1147 3.926 15.418C4.212 15.7213 4.563 15.9597 4.979 16.133C5.395 16.2977 5.876 16.38 6.422 16.38Z" fill="#666666"/>
</svg>
