<svg width="14" height="20" viewBox="0 0 14 20" fill="none" xmlns="http://www.w3.org/2000/svg">
<path d="M6.526 16.705C7.05467 16.705 7.51833 16.6313 7.917 16.484C8.31567 16.328 8.64933 16.1157 8.918 15.847C9.19533 15.5783 9.40333 15.2577 9.542 14.885C9.68067 14.5123 9.75 14.1093 9.75 13.676C9.75 12.6447 9.464 11.8647 8.892 11.336C8.32 10.8073 7.53133 10.543 6.526 10.543C5.52067 10.543 4.732 10.8073 4.16 11.336C3.588 11.8647 3.302 12.6447 3.302 13.676C3.302 14.1093 3.37133 14.5123 3.51 14.885C3.64867 15.2577 3.85233 15.5783 4.121 15.847C4.39833 16.1157 4.73633 16.328 5.135 16.484C5.53367 16.6313 5.99733 16.705 6.526 16.705ZM6.526 2.418C6.04933 2.418 5.63767 2.49167 5.291 2.639C4.94433 2.78633 4.654 2.98567 4.42 3.237C4.19467 3.47967 4.02567 3.76133 3.913 4.082C3.809 4.40267 3.757 4.74067 3.757 5.096C3.757 5.46867 3.80033 5.83267 3.887 6.188C3.98233 6.53467 4.13833 6.84667 4.355 7.124C4.57167 7.39267 4.85767 7.60933 5.213 7.774C5.56833 7.93867 6.006 8.021 6.526 8.021C7.046 8.021 7.48367 7.93867 7.839 7.774C8.19433 7.60933 8.48033 7.39267 8.697 7.124C8.91367 6.84667 9.06533 6.53467 9.152 6.188C9.24733 5.83267 9.295 5.46867 9.295 5.096C9.295 4.74067 9.23867 4.40267 9.126 4.082C9.01333 3.76133 8.84433 3.47967 8.619 3.237C8.39367 2.98567 8.10767 2.78633 7.761 2.639C7.41433 2.49167 7.00267 2.418 6.526 2.418ZM9.698 9.204C10.842 9.57667 11.687 10.1487 12.233 10.92C12.779 11.6827 13.052 12.6187 13.052 13.728C13.052 14.56 12.8917 15.314 12.571 15.99C12.259 16.666 11.817 17.2423 11.245 17.719C10.673 18.1957 9.984 18.564 9.178 18.824C8.38067 19.084 7.49667 19.214 6.526 19.214C5.55533 19.214 4.667 19.084 3.861 18.824C3.06367 18.564 2.379 18.1957 1.807 17.719C1.235 17.2423 0.788667 16.666 0.468 15.99C0.156 15.314 0 14.56 0 13.728C0 12.6187 0.273 11.6827 0.819 10.92C1.365 10.1487 2.21 9.57667 3.354 9.204C2.444 8.82267 1.75933 8.281 1.3 7.579C0.849333 6.877 0.624 6.032 0.624 5.044C0.624 4.33333 0.767 3.67033 1.053 3.055C1.34767 2.43967 1.755 1.90667 2.275 1.456C2.795 0.996666 3.41467 0.641332 4.134 0.39C4.862 0.13 5.65933 0 6.526 0C7.39267 0 8.18567 0.13 8.905 0.39C9.633 0.641332 10.257 0.996666 10.777 1.456C11.297 1.90667 11.7 2.43967 11.986 3.055C12.2807 3.67033 12.428 4.33333 12.428 5.044C12.428 6.032 12.1983 6.877 11.739 7.579C11.2883 8.281 10.608 8.82267 9.698 9.204Z" />
</svg>
