<svg width="13" height="20" viewBox="0 0 13 20" fill="none" xmlns="http://www.w3.org/2000/svg">
<path d="M3.211 5.85C3.211 6.89867 3.47967 7.70033 4.017 8.255C4.563 8.801 5.33433 9.074 6.331 9.074C6.851 9.074 7.31467 8.99167 7.722 8.827C8.12933 8.66233 8.47167 8.437 8.749 8.151C9.02633 7.865 9.23433 7.527 9.373 7.137C9.52033 6.747 9.594 6.32667 9.594 5.876C9.594 5.36467 9.516 4.90967 9.36 4.511C9.204 4.10367 8.983 3.76133 8.697 3.484C8.411 3.20667 8.06867 2.99433 7.67 2.847C7.28 2.69967 6.851 2.626 6.383 2.626C5.89767 2.626 5.46 2.70833 5.07 2.873C4.68 3.029 4.34633 3.25 4.069 3.536C3.79167 3.822 3.57933 4.16433 3.432 4.563C3.28467 4.953 3.211 5.382 3.211 5.85ZM7.475 11.713C7.62233 11.531 7.761 11.3533 7.891 11.18C8.021 11.0067 8.14667 10.8333 8.268 10.66C7.83467 10.9373 7.358 11.1497 6.838 11.297C6.318 11.4357 5.772 11.505 5.2 11.505C4.55 11.505 3.913 11.3923 3.289 11.167C2.665 10.9417 2.11033 10.6037 1.625 10.153C1.13967 9.69367 0.745333 9.13033 0.442 8.463C0.147333 7.787 0 6.99833 0 6.097C0 5.25633 0.156 4.46767 0.468 3.731C0.78 2.99433 1.21767 2.34867 1.781 1.794C2.34433 1.23933 3.02033 0.801666 3.809 0.480999C4.59767 0.160333 5.46867 0 6.422 0C7.384 0 8.24633 0.151667 9.009 0.455C9.78033 0.758333 10.4347 1.183 10.972 1.729C11.518 2.275 11.934 2.92933 12.22 3.692C12.5147 4.45467 12.662 5.291 12.662 6.201C12.662 6.78167 12.61 7.332 12.506 7.852C12.4107 8.372 12.272 8.87467 12.09 9.36C11.908 9.83667 11.687 10.3047 11.427 10.764C11.167 11.2233 10.8767 11.6783 10.556 12.129L6.253 18.265C6.10567 18.473 5.88467 18.6507 5.59 18.798C5.29533 18.9367 4.96167 19.006 4.589 19.006H1.638L7.475 11.713Z" />
</svg>
