<svg width="13" height="19" viewBox="0 0 13 19" fill="none" xmlns="http://www.w3.org/2000/svg">
<path d="M12.987 0V1.391C12.987 1.807 12.9437 2.145 12.857 2.405C12.7703 2.65633 12.6837 2.86867 12.597 3.042L5.473 17.706C5.32567 18.0093 5.11767 18.2693 4.849 18.486C4.58033 18.694 4.22067 18.798 3.77 18.798H1.443L8.71 4.433C8.87467 4.13833 9.035 3.86967 9.191 3.627C9.35567 3.37567 9.53767 3.13733 9.737 2.912H0.741C0.541667 2.912 0.368333 2.83833 0.221 2.691C0.0736667 2.54367 0 2.37033 0 2.171V0H12.987Z" fill="#666666"/>
</svg>
