<?xml version="1.0" standalone="no"?>
<!DOCTYPE svg PUBLIC "-//W3C//DTD SVG 20010904//EN"
 "http://www.w3.org/TR/2001/REC-SVG-20010904/DTD/svg10.dtd">
<svg version="1.0" xmlns="http://www.w3.org/2000/svg"
 width="512.000000pt" height="512.000000pt" viewBox="0 0 512.000000 512.000000"
 preserveAspectRatio="xMidYMid meet">
<metadata>
Created by potrace 1.11, written by Peter Selinger 2001-2013
</metadata>
<g transform="translate(0.000000,512.000000) scale(0.100000,-0.100000)"
fill="#000000" stroke="none">
<path d="M1155 5109 c-366 -20 -633 -131 -838 -348 -161 -171 -251 -365 -294
-632 -15 -93 -17 -252 -21 -1464 -4 -1387 0 -1590 34 -1753 73 -352 276 -623
584 -779 78 -40 221 -87 310 -102 161 -27 381 -31 1630 -31 1287 0 1478 4
1646 35 144 27 315 97 431 176 169 116 328 325 398 519 84 236 87 312 83 1930
-4 1191 -6 1368 -21 1463 -23 154 -51 247 -107 363 -157 324 -435 532 -800
599 -47 8 -164 20 -260 25 -205 11 -2568 11 -2775 -1z m757 -856 l3 -167 101
-18 c55 -9 147 -33 205 -53 110 -38 340 -147 359 -171 10 -10 -12 -57 -101
-221 -62 -114 -113 -209 -115 -211 -1 -2 -66 28 -145 67 -114 55 -280 121
-305 121 -2 0 -4 -102 -4 -228 l0 -227 128 -38 c136 -41 293 -111 381 -171
l54 -37 76 77 c185 186 432 296 729 324 208 20 390 -10 567 -94 155 -73 304
-201 402 -343 32 -46 35 -55 22 -68 -8 -8 -97 -72 -198 -143 l-185 -129 -39
58 c-73 111 -199 201 -322 234 -76 19 -224 19 -300 0 -96 -25 -181 -72 -256
-142 -65 -62 -128 -150 -144 -200 l-6 -23 355 0 c196 0 356 -1 356 -3 0 -2
-24 -61 -53 -132 l-54 -130 -332 -3 -332 -2 3 -78 3 -77 336 -3 337 -2 -58
-138 -59 -137 -225 -3 c-124 -1 -226 -6 -226 -10 0 -17 41 -72 88 -119 111
-111 250 -167 417 -167 115 0 188 18 281 69 64 36 181 151 209 206 11 19 22
29 31 25 14 -5 406 -234 413 -242 2 -2 -12 -27 -30 -56 -142 -221 -370 -376
-648 -439 -114 -26 -353 -36 -458 -19 -180 28 -352 105 -494 218 -135 108
-276 289 -355 456 -36 76 -38 78 -68 72 -55 -12 -169 -25 -258 -32 l-88 -6 0
-184 0 -184 -140 0 -140 0 0 199 0 198 -62 7 c-89 10 -346 77 -464 121 -105
39 -235 104 -278 139 l-26 21 116 225 c65 124 118 226 120 228 1 2 44 -22 96
-52 119 -71 282 -141 405 -172 53 -13 98 -22 101 -20 2 3 1 104 -3 224 l-7
220 -117 37 c-327 104 -472 203 -555 378 -57 121 -71 248 -42 399 53 277 222
464 504 558 50 17 118 34 150 38 l57 7 3 168 2 167 140 0 140 0 2 -167z"/>
<path d="M1550 3578 c-62 -32 -90 -77 -90 -145 0 -64 16 -99 66 -143 32 -28
90 -60 109 -60 3 0 5 83 5 185 l0 185 -23 0 c-12 0 -43 -10 -67 -22z"/>
<path d="M1920 2391 l0 -180 41 14 c87 31 129 81 129 155 0 70 -43 125 -131
171 l-39 19 0 -179z"/>
</g>
</svg>
