<svg width="29" height="21" viewBox="0 0 29 21" fill="none" xmlns="http://www.w3.org/2000/svg">
<path d="M7.38025 2.57349H27.9801V19.596H7.38025L1.73633 11.1053L7.38025 2.57349Z" fill="#666666"/>
<path d="M25.7511 0.594727H8.25114C7.88041 0.595306 7.51587 0.685276 7.19151 0.856249C6.86715 1.02722 6.59352 1.27363 6.39614 1.5725L0.0844727 10.5947L6.39614 19.6058C6.59285 19.9061 6.86604 20.1542 7.19033 20.3271C7.51462 20.5 7.87951 20.592 8.25114 20.5947H25.7511C26.3694 20.593 26.9618 20.3583 27.399 19.9419C27.8362 19.5255 28.0826 18.9613 28.0845 18.3725V2.81695C28.0826 2.22812 27.8362 1.66391 27.399 1.24754C26.9618 0.831176 26.3694 0.596485 25.7511 0.594727ZM25.7511 18.3725H8.33281L2.88447 10.5947L8.32114 2.81695H25.7511V18.3725Z" fill="#666666"/>
<path d="M12.513 15.7044L16.3653 12.0356L20.2175 15.7044L21.7305 14.2635L17.8783 10.5946L21.7305 6.92582L20.2175 5.48486L16.3653 9.15369L12.513 5.48486L11 6.92582L14.8523 10.5946L11 14.2635L12.513 15.7044Z" fill="white"/>
</svg>
