<svg width="9" height="7" viewBox="0 0 9 7" fill="none" xmlns="http://www.w3.org/2000/svg">
<path d="M0.589844 0.873744C0.589844 0.783168 0.633074 0.696302 0.710023 0.632255C0.786973 0.568209 0.891339 0.532227 1.00016 0.532227H8.17952C8.28835 0.532227 8.39271 0.568209 8.46966 0.632255C8.54661 0.696302 8.58984 0.783168 8.58984 0.873744L4.89819 6.42287C4.85841 6.45744 4.81064 6.48495 4.75776 6.50374C4.70487 6.52254 4.64796 6.53223 4.59045 6.53223C4.53294 6.53223 4.47603 6.52254 4.42314 6.50374C4.37026 6.48495 4.32249 6.45744 4.28271 6.42287C3.97437 6.16623 0.589844 0.873744 0.589844 0.873744Z" fill="white"/>
</svg>
