<svg width="512" height="512" viewBox="0 0 512 512" fill="none" xmlns="http://www.w3.org/2000/svg">
<rect width="512" height="512" rx="120" fill="url(#paint0_linear)"/>
<path d="M386.855 344.444C378.449 366.723 357.438 375.193 339.982 375.193C320.261 375.193 304.743 364.528 295.045 348.524H340.95L352.265 321.541H285.025C284.377 317.15 284.054 312.442 284.054 306.483H350.648L361.965 279.5H288.58C296.016 258.167 312.827 240.91 339.336 240.91C356.147 240.91 377.484 247.813 386.857 271.343L427.592 243.734C413.043 214.867 381.365 195.103 340.63 195.103C282.115 195.103 243.969 234.949 233.302 279.5H219.078L208.75 306.483H230.068C230.068 311.502 230.391 316.524 231.038 321.541H216.814L205.5 348.524H238.472C254.315 388.685 291.167 421 338.688 421C374.895 421 416.922 402.174 430.5 369.232L386.855 344.444Z" fill="white"/>
<path d="M195.17 221.592C164.002 213.082 146.614 208.826 146.614 193.119C146.614 180.354 156.783 173.811 175.156 173.811C203.043 173.811 234.209 192.464 237.49 196.063L260.784 151.554C246.706 143.174 227.752 134.173 206.433 129.421V89H142.57V131.327C112.442 141.317 90.8418 165.273 90.8418 201.628C90.8418 236.645 110.855 252.681 153.833 265.772C185.985 275.592 209.934 279.845 209.934 297.19C209.934 308.317 200.748 314.535 181.392 314.535C145.633 314.535 108.889 291.954 104.622 287.372L81 334.171C98.5773 345.65 120.293 354.186 142.567 358.872V400H206.43V360.693C240.517 354.386 268 334.247 268 291.954C268.004 248.753 239.789 233.7 195.17 221.592Z" fill="white"/>
<defs>
<linearGradient id="paint0_linear" x1="256" y1="0" x2="256" y2="512" gradientUnits="userSpaceOnUse">
<stop stop-color="#0658FF"/>
<stop offset="1" stop-color="#00A2DD"/>
</linearGradient>
</defs>
</svg>
