<svg width="24" height="24" viewBox="0 0 24 24" fill="none" xmlns="http://www.w3.org/2000/svg">
<circle cx="12" cy="12" r="12" fill="#0658FF"/>
<path fill-rule="evenodd" clip-rule="evenodd" d="M14.9844 12.4214H13.0323V19.3816H10.1388V12.4214H8.76311V9.96238H10.1388V8.37156C10.1388 7.2339 10.6796 5.45216 13.0582 5.45216L15.2013 5.46126V7.84781H13.6461C13.3935 7.84781 13.0323 7.97521 13.0323 8.51777V9.96478H15.2369L14.9844 12.4214ZM11.9984 0C5.38322 0 0 5.38385 0 11.9991C0 18.6167 5.38322 24 11.9984 24C18.6161 24 24 18.6167 24 11.9991C24 5.38385 18.6161 0 11.9984 0Z" fill="#F1F1F1"/>
</svg>
