<svg width="32" height="24" viewBox="0 0 32 24" fill="none" xmlns="http://www.w3.org/2000/svg">
<rect width="32" height="24" rx="3" fill="#0658FF"/>
<path d="M22.1269 15.7718C21.7661 16.7112 20.8643 17.0684 20.1151 17.0684C19.2687 17.0684 18.6028 16.6187 18.1865 15.9438H20.1567L20.6423 14.806H17.7565C17.7287 14.6208 17.7148 14.4223 17.7148 14.171H20.5729L21.0586 13.0332H17.9091C18.2282 12.1336 18.9497 11.4059 20.0874 11.4059C20.8089 11.4059 21.7247 11.697 22.127 12.6892L23.8752 11.5249C23.2508 10.3077 21.8912 9.47424 20.1429 9.47424C17.6316 9.47424 15.9944 11.1545 15.5366 13.0332H14.9261L14.4829 14.171H15.3978C15.3978 14.3826 15.4116 14.5944 15.4394 14.806H14.829L14.3434 15.9438H15.7585C16.4384 17.6373 18.0201 19 20.0596 19C21.6136 19 23.4173 18.2061 24 16.817L22.1269 15.7718Z" fill="white"/>
<path d="M13.9 10.5912C12.5623 10.2324 11.816 10.0529 11.816 9.39058C11.816 8.85227 12.2525 8.57636 13.041 8.57636C14.2379 8.57636 15.5755 9.36292 15.7163 9.51471L16.716 7.63784C16.1118 7.28443 15.2984 6.90488 14.3834 6.7045V5H11.6425V6.78487C10.3494 7.20612 9.42239 8.21633 9.42239 9.74936C9.42239 11.226 10.2813 11.9022 12.1259 12.4542C13.5058 12.8683 14.5337 13.0477 14.5337 13.7791C14.5337 14.2483 14.1394 14.5105 13.3087 14.5105C11.774 14.5105 10.197 13.5583 10.0138 13.3651L9 15.3385C9.75439 15.8226 10.6864 16.1826 11.6424 16.3802V18.1145H14.3833V16.4569C15.8462 16.191 17.0258 15.3418 17.0258 13.5583C17.0259 11.7366 15.815 11.1018 13.9 10.5912Z" fill="white"/>
</svg>
