<svg width="14" height="20" viewBox="0 0 14 20" fill="none" xmlns="http://www.w3.org/2000/svg">
<path d="M13.78 9.607C13.78 11.245 13.6023 12.6707 13.247 13.884C12.9003 15.0887 12.415 16.0853 11.791 16.874C11.1757 17.6627 10.4433 18.252 9.594 18.642C8.75333 19.0233 7.84333 19.214 6.864 19.214C5.88467 19.214 4.97467 19.0233 4.134 18.642C3.302 18.252 2.57833 17.6627 1.963 16.874C1.34767 16.0853 0.866667 15.0887 0.52 13.884C0.173333 12.6707 0 11.245 0 9.607C0 7.96033 0.173333 6.53467 0.52 5.33C0.866667 4.12533 1.34767 3.12867 1.963 2.34C2.57833 1.55133 3.302 0.966333 4.134 0.584999C4.97467 0.195 5.88467 0 6.864 0C7.84333 0 8.75333 0.195 9.594 0.584999C10.4433 0.966333 11.1757 1.55133 11.791 2.34C12.415 3.12867 12.9003 4.12533 13.247 5.33C13.6023 6.53467 13.78 7.96033 13.78 9.607ZM10.465 9.607C10.465 8.24633 10.3653 7.11967 10.166 6.227C9.96667 5.33433 9.698 4.62367 9.36 4.095C9.03067 3.56633 8.64933 3.198 8.216 2.99C7.78267 2.77333 7.332 2.665 6.864 2.665C6.40467 2.665 5.95833 2.77333 5.525 2.99C5.10033 3.198 4.72333 3.56633 4.394 4.095C4.06467 4.62367 3.80033 5.33433 3.601 6.227C3.41033 7.11967 3.315 8.24633 3.315 9.607C3.315 10.9677 3.41033 12.0943 3.601 12.987C3.80033 13.8797 4.06467 14.5903 4.394 15.119C4.72333 15.6477 5.10033 16.0203 5.525 16.237C5.95833 16.445 6.40467 16.549 6.864 16.549C7.332 16.549 7.78267 16.445 8.216 16.237C8.64933 16.0203 9.03067 15.6477 9.36 15.119C9.698 14.5903 9.96667 13.8797 10.166 12.987C10.3653 12.0943 10.465 10.9677 10.465 9.607Z" fill="#666666"/>
</svg>
