<svg width="13" height="20" viewBox="0 0 13 20" fill="none" xmlns="http://www.w3.org/2000/svg">
<path d="M0.546 5.447C0.676 4.54567 0.927333 3.757 1.3 3.081C1.67267 2.39633 2.13633 1.82867 2.691 1.378C3.25433 0.918666 3.89567 0.576333 4.615 0.350999C5.343 0.117 6.123 0 6.955 0C7.82167 0 8.60167 0.125666 9.295 0.376999C9.997 0.619666 10.595 0.961999 11.089 1.404C11.583 1.83733 11.96 2.34867 12.22 2.938C12.4887 3.52733 12.623 4.16433 12.623 4.849C12.623 5.447 12.5537 5.97567 12.415 6.435C12.285 6.88567 12.0943 7.28 11.843 7.618C11.5917 7.956 11.2797 8.242 10.907 8.476C10.5343 8.71 10.114 8.905 9.646 9.061C10.7727 9.41633 11.6133 9.958 12.168 10.686C12.7227 11.414 13 12.3283 13 13.429C13 14.365 12.8267 15.1927 12.48 15.912C12.1333 16.6313 11.6653 17.238 11.076 17.732C10.4867 18.2173 9.802 18.5857 9.022 18.837C8.25067 19.0883 7.43167 19.214 6.565 19.214C5.62033 19.214 4.797 19.1057 4.095 18.889C3.393 18.6723 2.782 18.3517 2.262 17.927C1.742 17.5023 1.3 16.9823 0.936 16.367C0.572 15.7517 0.26 15.041 0 14.235L1.417 13.65C1.78967 13.494 2.13633 13.455 2.457 13.533C2.78633 13.6023 3.02467 13.7757 3.172 14.053C3.328 14.3563 3.497 14.6553 3.679 14.95C3.86967 15.2447 4.095 15.509 4.355 15.743C4.615 15.9683 4.91833 16.1547 5.265 16.302C5.62033 16.4407 6.04067 16.51 6.526 16.51C7.072 16.51 7.54867 16.4233 7.956 16.25C8.36333 16.068 8.70133 15.834 8.97 15.548C9.24733 15.262 9.451 14.9457 9.581 14.599C9.71967 14.2437 9.789 13.8883 9.789 13.533C9.789 13.0823 9.74133 12.675 9.646 12.311C9.55067 11.9383 9.35133 11.622 9.048 11.362C8.74467 11.102 8.307 10.8983 7.735 10.751C7.17167 10.6037 6.41333 10.53 5.46 10.53V8.242C6.24867 8.23333 6.903 8.15967 7.423 8.021C7.943 7.88233 8.35467 7.69167 8.658 7.449C8.97 7.19767 9.18667 6.89867 9.308 6.552C9.42933 6.20533 9.49 5.824 9.49 5.408C9.49 4.524 9.243 3.85233 8.749 3.393C8.255 2.93367 7.59633 2.704 6.773 2.704C6.39167 2.704 6.04067 2.76033 5.72 2.873C5.39933 2.977 5.109 3.12867 4.849 3.328C4.59767 3.51867 4.38533 3.744 4.212 4.004C4.03867 4.264 3.90867 4.55 3.822 4.862C3.67467 5.26067 3.47967 5.525 3.237 5.655C3.003 5.785 2.66933 5.81533 2.236 5.746L0.546 5.447Z" />
</svg>
