<svg width="15" height="18" viewBox="0 0 15 18" fill="none" xmlns="http://www.w3.org/2000/svg">
<path d="M13.2201 13.6522C13.4002 13.6522 13.5597 13.7212 13.6989 13.8593L15 15.2598C14.2799 16.1448 13.392 16.8227 12.3363 17.2936C11.2889 17.7645 10.0286 18 8.55565 18C7.23813 18 6.05155 17.7767 4.99591 17.3302C3.94845 16.8836 3.05237 16.2625 2.30769 15.4668C1.56301 14.6712 0.99018 13.7212 0.589198 12.617C0.196399 11.5129 0 10.3072 0 9C0 7.67659 0.212766 6.46685 0.638298 5.37077C1.06383 4.26658 1.66121 3.31664 2.43044 2.52097C3.20786 1.7253 4.13257 1.10825 5.20458 0.669823C6.2766 0.223274 7.46317 0 8.76432 0C10.0573 0 11.2029 0.211096 12.2013 0.633287C13.2079 1.05548 14.063 1.60758 14.7668 2.28958L13.662 3.81191C13.5966 3.90934 13.5106 3.99459 13.4043 4.06766C13.3061 4.14073 13.1669 4.17727 12.9869 4.17727C12.8642 4.17727 12.7373 4.14479 12.6064 4.07984C12.4755 4.00677 12.3322 3.92152 12.1768 3.82409C12.0213 3.71854 11.8412 3.60487 11.6367 3.48309C11.4321 3.3613 11.1948 3.25169 10.9247 3.15426C10.6547 3.04871 10.3396 2.96346 9.97954 2.89851C9.62766 2.82544 9.21849 2.7889 8.75205 2.7889C7.95826 2.7889 7.22995 2.93099 6.5671 3.21515C5.91244 3.4912 5.34779 3.89716 4.87316 4.43302C4.39853 4.96076 4.03028 5.61028 3.76841 6.3816C3.50655 7.14479 3.37561 8.01759 3.37561 9C3.37561 9.99053 3.51473 10.8714 3.79296 11.6428C4.07938 12.4141 4.46399 13.0636 4.94681 13.5913C5.42962 14.1191 5.99836 14.525 6.65303 14.8092C7.30769 15.0852 8.01146 15.2233 8.76432 15.2233C9.2144 15.2233 9.61948 15.1989 9.97954 15.1502C10.3478 15.1015 10.6833 15.0244 10.9861 14.9188C11.2971 14.8133 11.5876 14.6793 11.8576 14.5169C12.1358 14.3464 12.41 14.1394 12.68 13.8958C12.7619 13.8227 12.8478 13.7659 12.9378 13.7253C13.0278 13.6766 13.1219 13.6522 13.2201 13.6522Z" fill="white"/>
</svg>
