<svg width="24" height="24" viewBox="0 0 24 24" fill="none" xmlns="http://www.w3.org/2000/svg">
<mask id="mask0_710_424" style="mask-type:alpha" maskUnits="userSpaceOnUse" x="0" y="0" width="24" height="24">
<path d="M0 0H24V24H0V0Z" fill="#F1F1F1"/>
</mask>
<g mask="url(#mask0_710_424)">
<circle cx="12" cy="12" r="12" fill="#0658FF"/>
<path fill-rule="evenodd" clip-rule="evenodd" d="M17.354 9.25429C17.3583 9.3721 17.3607 9.49231 17.3607 9.61314C17.3607 13.2619 14.5832 17.4694 9.50202 17.4694C7.942 17.4694 6.4902 17.0145 5.26794 16.2283C5.48487 16.2544 5.70419 16.2682 5.92642 16.2682C7.22191 16.2682 8.41146 15.8272 9.35757 15.0859C8.14921 15.0623 7.12999 14.2648 6.77834 13.167C6.94576 13.1978 7.11799 13.2165 7.29741 13.2165C7.54755 13.2165 7.79276 13.1839 8.0242 13.1199C6.76142 12.8673 5.80811 11.7515 5.80811 10.4132C5.80811 10.401 5.80811 10.3896 5.81051 10.3774C6.18084 10.5854 6.60863 10.708 7.06168 10.7219C6.32037 10.2288 5.83159 9.38182 5.83159 8.42359C5.83159 7.9184 5.96872 7.44414 6.20496 7.03567C7.56623 8.70693 9.60354 9.80658 11.897 9.92186C11.8499 9.71895 11.8263 9.50923 11.8263 9.2918C11.8263 7.76739 13.0631 6.53061 14.588 6.53061C15.3831 6.53061 16.1003 6.86597 16.603 7.40121C17.2332 7.27861 17.8234 7.04969 18.3593 6.73124C18.1515 7.37773 17.7147 7.9184 17.1438 8.26045C17.7032 8.19454 18.2367 8.04593 18.7297 7.8266C18.3617 8.37889 17.8918 8.86464 17.354 9.25429ZM11.9985 0C5.38335 0 0 5.38386 0 11.9991C0 18.6167 5.38335 24 11.9985 24C18.6161 24 24 18.6167 24 11.9991C24 5.38386 18.6161 0 11.9985 0Z" fill="#F1F1F1"/>
</g>
</svg>
